<?xml version="1.0" encoding="iso-8859-1"?>
<!-- Uploaded to: SVG Repo, www.svgrepo.com, Generator: SVG Repo Mixer Tools -->
<svg height="800px" width="800px" version="1.1" id="Layer_1" xmlns="http://www.w3.org/2000/svg" xmlns:xlink="http://www.w3.org/1999/xlink" 
	 viewBox="0 0 512 512" xml:space="preserve">
<path style="fill:#578CAD;" d="M452.243,410.734l-25.393-31.798v-86.96c0-2.5-1.069-4.882-2.938-6.545l-82.054-73.064
	c-1.609-1.434-3.69-2.225-5.846-2.225H175.989c-2.156,0-4.237,0.792-5.846,2.225l-82.054,73.064
	c-1.869,1.664-2.938,4.045-2.938,6.545v86.96l-25.394,31.798c-2.103,2.634-2.509,6.238-1.045,9.273
	c1.464,3.035,4.54,4.964,7.914,4.964h378.749c3.374,0,6.451-1.929,7.915-4.964C454.753,416.973,454.347,413.368,452.243,410.734z"/>
<path style="opacity:0.1;fill:#231F20;enable-background:new    ;" d="M77.691,419.504l25.393-31.798v-86.96
	c0-2.5,1.069-4.882,2.938-6.545l82.054-73.064c1.609-1.434,3.69-2.225,5.846-2.225h155.286l-7.351-6.545
	c-1.609-1.434-3.69-2.225-5.846-2.225H175.989c-2.156,0-4.237,0.792-5.846,2.225l-82.054,73.064
	c-1.869,1.664-2.938,4.045-2.938,6.545v86.96l-25.394,31.798c-2.103,2.634-2.509,6.238-1.045,9.273
	c1.464,3.035,4.54,4.964,7.914,4.964h9.163C75.789,423.022,76.427,421.088,77.691,419.504z"/>
<path style="fill:#CAE9F7;" d="M258.204,0.502c-1.614-0.67-3.427-0.669-5.041,0c-49.028,20.335-80.706,67.788-80.706,120.89V457.07
	c0,9.177,7.466,16.643,16.643,16.643h133.168c9.176,0,16.643-7.466,16.643-16.643V121.393
	C338.909,68.289,307.23,20.837,258.204,0.502z"/>
<path style="fill:#578CAD;" d="M255.683,76.718c-19.073,0-34.591,15.517-34.591,34.59c0,3.633,2.946,6.578,6.578,6.578h56.025
	c3.632,0,6.578-2.945,6.578-6.578C290.272,92.235,274.754,76.718,255.683,76.718z"/>
<path style="fill:#90C8EC;" d="M172.457,427.13v0.355v29.585c0,9.191,7.451,16.643,16.643,16.643h133.168
	c9.192,0,16.643-7.451,16.643-16.643v-29.584v-0.355H172.457V427.13z"/>
<path style="fill:#578CAD;" d="M255.683,512c-4.542,0-8.222-3.681-8.222-8.222V346.165c0-4.541,3.68-8.222,8.222-8.222
	c4.542,0,8.222,3.681,8.222,8.222v157.613C263.906,508.319,260.224,512,255.683,512z"/>
<g>
	<path style="opacity:0.1;fill:#231F20;enable-background:new    ;" d="M190.362,457.072V121.393
		c0-50.737,28.934-96.299,74.273-117.996c-2.114-1.011-4.248-1.99-6.432-2.895c-1.614-0.67-3.427-0.669-5.041,0
		c-49.028,20.335-80.706,67.788-80.706,120.89V457.07c0,9.177,7.466,16.643,16.643,16.643h17.906
		C197.828,473.714,190.362,466.247,190.362,457.072z"/>
	<path style="opacity:0.1;fill:#231F20;enable-background:new    ;" d="M238.998,111.307c0-15.977,10.892-29.453,25.638-33.408
		c-2.856-0.766-5.856-1.182-8.952-1.182c-19.073,0-34.591,15.517-34.591,34.59c0,3.633,2.946,6.578,6.578,6.578h17.906
		C241.944,117.885,238.998,114.94,238.998,111.307z"/>
</g>
</svg>